Coordinates
version=1
nRows=15
nColumns=19
inDegrees=yes

Units are S.I. units (second, meters, Newtons, ...)
If the header above contains a line with 'inDegrees', this indicates whether rotational values are in degrees (yes) or radians (no).

endheader
time	pelvis_tilt	pelvis_list	pelvis_rotation	pelvis_tx	pelvis_ty	pelvis_tz	hip_flexion_r	hip_adduction_r	hip_rotation_r	knee_angle_r	knee_angle_r_beta	ankle_angle_r	hip_flexion_l	hip_adduction_l	hip_rotation_l	knee_angle_l	knee_angle_l_beta	ankle_angle_l
     11.37333333	     -2.93855396	     -5.79806749	     -2.06427065	      1.96009586	      0.99715131	      0.97981883	     24.38024835	      3.87641715	    -24.49277320	     22.21439851	      0.38771440	     -6.25374909	    -12.49993694	    -10.82144695	    -14.56547701	     44.61140507	      0.77861590	    -13.78081758
     11.38000000	     -2.38315939	     -6.22814849	     -1.98748099	      1.96036943	      0.99370715	      0.98085731	     23.31315807	      4.16462479	    -25.43865949	     23.18732654	      0.40469519	     -5.10085925	    -12.02752833	    -11.80284424	    -14.35397576	     48.19182890	      0.84110609	    -13.34084586
     11.38666667	     -1.82649176	     -6.67866610	     -1.94274369	      1.96038570	      0.98989193	      0.98181595	     22.24088507	      4.50318632	    -26.11305465	     24.30164752	      0.42414376	     -3.64651662	    -11.44344862	    -12.80812071	    -14.11308736	     51.86160744	      0.90515581	    -12.92048604
     11.39333333	     -1.38963952	     -7.16951316	     -1.83234846	      1.96012350	      0.98560474	      0.98262730	     21.29132878	      4.90244790	    -26.58788172	     25.48998585	      0.44488418	     -1.80295352	    -10.56156791	    -13.87112631	    -13.68579228	     55.64512841	      0.97119070	    -12.46883220
     11.40000000	     -0.95626411	     -7.65238899	     -1.79045988	      1.95952193	      0.98105263	      0.98340871	     20.39010970	      5.33055159	    -26.77739788	     26.79859887	      0.46772379	      0.27145571	     -9.56455609	    -14.87947197	    -13.19130754	     59.45744314	      1.03772815	    -12.03884765
     11.40666667	     -0.37873186	     -8.12096358	     -1.86295114	      1.95857611	      0.97651060	      0.98418595	     19.38363384	      5.79487930	    -26.63784406	     28.20393796	      0.49225158	      2.55586584	     -8.68066780	    -15.81674227	    -12.75781226	     63.19797745	      1.10301279	    -11.61049929
     11.41333333	     -0.27024287	     -8.63802074	     -1.74629623	      1.95730227	      0.97131640	      0.98467268	     18.94315067	      6.24619025	    -26.60321113	     29.67832148	      0.51798443	      4.90783648	     -6.99380922	    -16.76327396	    -11.78000355	     67.07466202	      1.17067370	    -11.14233188
     11.42000000	     -0.00747023	     -9.09408876	     -1.79418045	      1.95558417	      0.96635257	      0.98518498	     18.40946883	      6.65666651	    -26.32255007	     31.24769509	      0.54537516	      7.30230867	     -5.43393990	    -17.53327545	    -10.87708163	     70.81504123	      1.23595563	    -10.66666851
     11.42666667	      0.18363361	     -9.53657875	     -1.84338124	      1.95356825	      0.96142612	      0.98560476	     18.01023643	      7.03727786	    -25.97371067	     32.87123586	      0.57371129	      9.62498260	     -3.67811218	    -18.19930455	     -9.81490268	     74.45855689	      1.29954697	    -10.16771966
     11.43333333	      0.29576267	     -9.93870379	     -1.90267439	      1.95136409	      0.95662270	      0.98590271	     17.72321593	      7.35009865	    -25.59380743	     34.51158935	      0.60234086	     11.78785588	     -1.74808652	    -18.71242945	     -8.62708583	     77.94281599	      1.36035877	     -9.64202273
     11.44000000	      0.33982021	    -10.29019232	     -1.96552401	      1.94892143	      0.95205571	      0.98613838	     17.52652670	      7.59118816	    -25.18984359	     36.13835021	      0.63073320	     13.76775034	      0.35641959	    -19.06277352	     -7.31398641	     81.25715052	      1.41820482	     -9.09128493
     11.44666667	      0.32503601	    -10.64483484	     -1.98239889	      1.94635516	      0.94779984	      0.98626112	     17.35787179	      7.82413633	    -24.82175628	     37.65744601	      0.65724642	     15.51121671	      2.62189241	    -19.33219380	     -5.87773997	     84.37077127	      1.47254775	     -8.55937724
     11.45333333	      0.22042585	    -10.87276503	     -2.00894626	      1.94369770	      0.94388861	      0.98631605	     17.24825232	      7.90841760	    -24.43834166	     39.09875941	      0.68240209	     17.00031647	      5.03602480	    -19.33017386	     -4.36965923	     87.23237522	      1.52249216	     -7.93397794
     11.46000000	      0.06963016	    -11.04347770	     -1.98261289	      1.94102189	      0.94043636	      0.98629196	     17.10276337	      7.94083793	    -24.07741153	     40.36126106	      0.70443690	     18.27302782	      7.55758207	    -19.18862817	     -2.81338825	     89.81893317	      1.56763611	     -7.34013572
     11.46666667	     -0.07391224	    -11.15029045	     -1.88279711	      1.93836863	      0.93750373	      0.98616194	     16.84095419	      7.89983506	    -23.79148387	     41.42237416	      0.72295681	     19.30553342	     10.09861990	    -18.87803163	     -1.21843882	     92.10515088	      1.60753814	     -6.69079704
